<svg viewBox="0 0 715 523" fill="none" xmlns="http://www.w3.org/2000/svg">
<path opacity="0.99" d="M175.951 383.126C217.511 377.276 298.287 371.508 382.122 374.173C465.957 376.837 490.686 398.15 581.422 388.831C678.208 378.891 769.981 401.767 671.028 422.361C576.842 441.962 449.296 420.165 331.44 426.738C213.585 433.311 4.74397 469.628 73.0464 427.907C95.2399 414.351 202.512 400.77 150.472 401.592C93.0094 403.446 141.099 387.617 175.951 383.126Z" fill="#BBDDFF"/>
<path d="M450.205 381.126C453.723 413.308 562.143 411.318 499.167 429.016C561.565 431.507 621.003 432.772 671.029 422.361C769.982 401.767 678.208 378.891 581.422 388.831C520.598 395.078 489.395 387.564 450.205 381.126Z" fill="#91C9FF" fill-opacity="0.992157"/>
<path d="M335.526 373.508C335.229 373.509 334.935 373.513 334.638 373.513C316.928 386.375 297.989 392.835 279.047 393.756C258.617 394.749 238.167 389.296 219.246 378.432C218.86 378.465 218.469 378.497 218.085 378.53C237.329 389.754 258.204 395.422 279.084 394.407C298.43 393.466 317.761 386.78 335.776 373.508C335.693 373.508 335.609 373.508 335.526 373.508L335.526 373.508ZM374.656 373.959C360.02 389.971 337.215 400.227 311.947 405.388C275.001 412.934 232.843 409.549 203.589 397.364L203.601 397.374C173.701 383.695 139.918 392.483 123.865 398.217C123.786 398.462 123.784 398.699 123.865 398.924C139.704 393.241 173.501 384.332 203.274 397.952L203.281 397.957H203.288C232.736 410.223 275.004 413.604 312.111 406.025C337.685 400.802 360.827 390.353 375.575 373.986C375.269 373.978 374.962 373.968 374.656 373.96L374.656 373.959ZM418.888 376.749C404.44 387.268 383.725 399.671 355.896 410.267C291.646 434.734 191.37 437.038 137.282 422.572C122.703 418.673 107.047 418.634 91.9332 420.66C90.4566 421.09 89.0316 421.524 87.6523 421.959C104.028 419.326 121.219 418.959 137.073 423.199C191.415 437.733 291.691 435.424 356.175 410.869C384.405 400.119 405.345 387.503 419.87 376.861C419.541 376.824 419.219 376.785 418.888 376.749V376.749ZM436.544 378.997C434.537 381.265 432.351 383.974 430.491 386.835C428.014 390.647 426.105 394.73 426.005 398.452C425.905 402.174 427.693 405.538 432.456 407.681C437.125 409.78 441.591 411.642 445.194 413.551C448.796 415.461 451.519 417.425 452.758 419.654C453.922 421.748 453.823 424.108 451.911 427.089C452.182 427.098 452.453 427.111 452.724 427.12C454.54 424.13 454.637 421.574 453.407 419.36C452.056 416.928 449.208 414.928 445.558 412.993C441.908 411.058 437.434 409.193 432.778 407.098C428.216 405.046 426.639 402.003 426.733 398.472C426.828 394.941 428.673 390.924 431.118 387.163C433.038 384.208 435.309 381.429 437.372 379.12C437.094 379.08 436.823 379.037 436.544 378.997V378.997ZM604.626 387.052C604.329 387.067 604.034 387.081 603.738 387.096C597.086 396.575 588.294 404.812 578.066 411.654C565.51 420.052 550.798 426.34 535.276 430.245C536.085 430.267 536.892 430.286 537.7 430.306C552.483 426.35 566.47 420.228 578.502 412.179C588.932 405.202 597.893 396.772 604.626 387.052V387.052ZM653.185 387.151C649.536 394.906 644.479 401.705 637.563 406.693C622.953 417.23 608.053 424.86 592.977 430.439C593.648 430.419 594.321 430.404 594.99 430.384C609.532 424.845 623.912 417.373 638.018 407.199C645.118 402.078 650.269 395.115 653.964 387.196C653.707 387.181 653.443 387.167 653.185 387.151ZM546.661 391.084C546.387 391.089 546.119 391.091 545.846 391.099C544.049 394.371 541.672 397.235 538.758 399.643C526.421 409.838 504.487 412.031 477.317 403.188L477.065 403.805C504.389 412.697 526.638 410.543 539.251 400.119C542.323 397.581 544.81 394.552 546.661 391.085L546.661 391.084Z" fill="#2B98FF"/>
<path opacity="0.99" d="M636.283 361.941C633.074 361.945 629.98 362.557 627.083 363.648L631.117 378.13L626.43 363.904C626.284 363.963 626.137 364.023 625.992 364.085L627.092 369.25C626.497 367.284 625.926 365.666 625.368 364.359C622.632 365.601 620.1 367.273 617.848 369.256L620.287 374.128L617.262 369.785C616.915 370.105 616.576 370.433 616.243 370.768L621.47 379.631L613.803 373.517C612.796 374.788 611.886 376.128 611.086 377.517L613.351 380.447L610.847 377.943C610.712 378.186 610.58 378.43 610.451 378.676L617.15 386.072L610.106 379.356C608.53 382.567 607.535 385.986 607.262 389.399H665.333C665.061 386.011 664.078 382.617 662.522 379.428L658.044 383.078L662.097 378.589C661.395 377.254 660.594 375.959 659.701 374.72L652.353 383.255L658.941 373.709C654.3 367.764 647.534 363.288 639.883 362.198L639.38 369.812L638.828 362.071C637.989 361.987 637.14 361.941 636.283 361.941V361.941Z" fill="#00539F"/>
<path d="M635.348 361.961C635.269 361.964 635.19 361.966 635.111 361.97L639.201 382.613L639.204 382.603L640.514 389.4H640.752L639.354 382.142L648.12 364.788C648.049 364.752 647.978 364.718 647.906 364.683L639.752 380.826L645.103 363.502C645.029 363.476 644.956 363.448 644.882 363.423L639.256 381.632L638.908 379.827L638.888 379.831L635.348 361.961ZM630.515 362.608C630.438 362.625 630.362 362.644 630.286 362.662L636.056 389.399H636.297L630.515 362.608ZM650.122 365.88L646.994 385.212L644.91 389.399H645.176L647.196 385.34L647.211 385.344L647.22 385.293L655.062 369.539C655.001 369.485 654.939 369.431 654.878 369.376L647.348 384.504L650.339 366.012C650.267 365.968 650.195 365.924 650.122 365.881V365.88ZM622.202 366.043C622.134 366.085 622.067 366.128 621.999 366.17L633.267 389.399H633.531L622.202 366.043ZM619.31 368.049C619.247 368.098 619.185 368.148 619.122 368.198L629.775 387.08L612.714 374.98C612.667 375.047 612.62 375.113 612.573 375.179L630.055 387.576L630.055 387.576L631.084 389.399H631.357L619.31 368.049ZM661.19 376.987L649.831 389.399H650.159L661.318 377.203C661.276 377.131 661.233 377.059 661.19 376.987H661.19ZM608.741 382.598C608.713 382.677 608.686 382.757 608.658 382.837L618.057 389.399H618.483L608.741 382.598ZM664.319 384.037L653.498 389.399H654.052L657.514 387.683L657.52 387.759L665.063 387.239C665.049 387.157 665.036 387.075 665.021 386.994L657.921 387.482L664.391 384.276C664.368 384.196 664.343 384.117 664.32 384.037L664.319 384.037Z" fill="white"/>
<path d="M176.309 453.789L68.6214 458.979C68.6214 458.979 63.3709 452.446 72.5593 450.112C81.7477 447.779 66.7519 442.633 75.9402 440.533C85.1286 438.433 93.898 445.269 93.898 445.269L176.309 453.789Z" fill="#74BAFF" fill-opacity="0.992157"/>
<path opacity="0.99" d="M138.027 418.327C132.884 418.332 127.927 419.131 123.286 420.554L129.748 439.441L122.239 420.887C122.005 420.964 121.77 421.043 121.538 421.123L123.301 427.86C122.346 425.295 121.432 423.185 120.538 421.48C116.154 423.101 112.097 425.282 108.488 427.867L112.396 434.221L107.549 428.557C106.994 428.975 106.45 429.402 105.917 429.839L114.293 441.399L102.008 433.425C100.394 435.083 98.9352 436.83 97.6537 438.643L101.283 442.464L97.2702 439.198C97.054 439.515 96.8425 439.833 96.6373 440.154L107.37 449.8L96.0843 441.041C93.5589 445.228 91.9647 449.688 91.5264 454.139H184.572C184.137 449.721 182.561 445.294 180.068 441.135L172.894 445.895L179.387 440.04C178.263 438.299 176.979 436.61 175.548 434.994L163.774 446.126L174.331 433.675C166.895 425.922 156.054 420.084 143.794 418.662L142.988 428.593L142.104 418.497C140.759 418.386 139.4 418.327 138.027 418.327V418.327Z" fill="#33B9FF"/>
<path d="M136.528 418.353C136.402 418.358 136.275 418.36 136.149 418.365L142.702 445.288L142.707 445.276L144.806 454.141H145.188L142.947 444.674L156.994 422.04C156.88 421.994 156.765 421.949 156.651 421.904L143.586 442.958L152.159 420.363C152.041 420.329 151.924 420.293 151.806 420.26L142.791 444.01L142.234 441.655L142.201 441.66L136.528 418.353ZM128.785 419.197C128.662 419.22 128.54 419.244 128.418 419.268L137.664 454.139H138.049L128.785 419.197ZM160.202 423.465L155.19 448.678L151.851 454.139H152.275L155.512 448.846L155.537 448.85L155.551 448.784L168.116 428.237C168.019 428.166 167.92 428.096 167.821 428.025L155.756 447.755L160.548 423.636C160.433 423.579 160.317 423.522 160.202 423.466V423.465ZM115.466 423.677C115.357 423.732 115.249 423.788 115.141 423.843L133.194 454.139H133.618L115.466 423.677ZM110.832 426.293C110.73 426.358 110.631 426.423 110.53 426.488L127.6 451.115L100.264 435.334C100.188 435.42 100.112 435.506 100.038 435.594L128.048 451.762L128.048 451.762L129.696 454.139H130.134L110.832 426.293ZM177.935 437.951L159.735 454.139H160.26L178.141 438.233C178.073 438.139 178.004 438.045 177.935 437.951H177.935ZM93.8979 445.269C93.8526 445.373 93.8085 445.477 93.7646 445.58L108.824 454.139H109.507L93.8979 445.269ZM182.949 447.146L165.611 454.139H166.498L172.046 451.902L172.054 452.001L184.14 451.322C184.118 451.215 184.097 451.109 184.073 451.002L172.696 451.639L183.063 447.458C183.027 447.354 182.988 447.25 182.95 447.146L182.949 447.146Z" fill="#82D4FF"/>
<path opacity="0.99" d="M424.508 385.433C424.508 385.433 437.979 379.078 431.243 377.453C424.508 375.827 422.372 380.556 422.372 380.556C422.372 380.556 434.857 363.708 421.058 363.56C407.258 363.413 408.572 378.191 408.572 378.191C408.572 378.191 403.48 370.063 398.223 371.689C392.966 373.314 397.401 381.738 397.401 381.738C397.401 381.738 389.844 381.443 390.501 384.399C391.159 387.354 424.508 385.433 424.508 385.433Z" fill="#33B9FF"/>
<path opacity="0.99" d="M241.339 434.66C241.339 434.66 254.81 428.305 248.074 426.68C241.339 425.054 239.203 429.783 239.203 429.783C239.203 429.783 251.689 412.936 237.889 412.788C224.089 412.64 225.403 427.419 225.403 427.419C225.403 427.419 220.311 419.29 215.054 420.916C209.797 422.542 214.232 430.966 214.232 430.966C214.232 430.966 206.675 430.67 207.332 433.626C207.99 436.582 241.339 434.66 241.339 434.66Z" fill="#33B9FF"/>
<path opacity="0.99" d="M587.989 430.529C587.989 430.529 599.487 425.105 593.738 423.717C587.989 422.33 586.167 426.366 586.167 426.366C586.167 426.366 596.823 411.986 585.045 411.86C573.267 411.734 574.389 424.348 574.389 424.348C574.389 424.348 570.042 417.41 565.555 418.798C561.068 420.185 564.854 427.375 564.854 427.375C564.854 427.375 558.404 427.123 558.965 429.646C559.526 432.168 587.989 430.529 587.989 430.529Z" fill="#1CB1FF"/>
<path opacity="0.99" d="M153.692 48.3152H147.27V404.322H153.692V48.3152Z" fill="#290B6F"/>
<path opacity="0.99" d="M150.103 48.3152H147.27V404.322H150.103V48.3152Z" fill="#1C074B"/>
<path opacity="0.99" d="M87.3065 75.9683L213.655 57.8339C216.54 57.4197 218.864 59.4077 218.864 62.2913V85.2472C218.864 88.1308 216.54 90.7858 213.655 91.2L87.3065 109.334C84.4208 109.749 82.0977 107.761 82.0977 104.877V81.921C82.0977 79.0374 84.4208 76.3825 87.3065 75.9683Z" fill="#290B6F"/>
<path opacity="0.99" d="M209.53 62.3084L91.1869 79.2936C88.6756 79.6539 86.7227 81.8775 86.7227 84.401V100.827C86.7227 103.35 88.9201 105.222 91.4315 104.862L209.774 87.8768C212.286 87.5165 214.239 85.2929 214.239 82.7694V66.3439C214.239 63.8204 212.041 61.9481 209.53 62.3084ZM209.774 64.003C211.392 63.7711 212.519 64.7411 212.519 66.3439V82.7694C212.519 84.3723 211.147 85.95 209.529 86.1823L91.1865 103.167C89.5685 103.399 88.4416 102.429 88.4416 100.827V84.401C88.4416 82.7982 89.8131 81.2204 91.431 80.9882L209.774 64.003Z" fill="white" fill-opacity="0.992157"/>
<path opacity="0.99" d="M77.8543 122.803L223.106 133.865C226.424 134.117 229.094 136.718 229.094 139.696V163.402C229.094 166.38 226.424 168.574 223.106 168.321L77.8543 157.26C74.5369 157.007 71.8662 154.406 71.8662 151.428V127.722C71.8662 124.744 74.5369 122.55 77.8543 122.803Z" fill="#290B6F"/>
<path opacity="0.99" d="M82.5412 127.173C79.6438 126.952 77.1875 128.967 77.1875 131.573V148.537C77.1875 151.143 79.476 153.371 82.3735 153.592L218.42 163.95C221.318 164.17 223.774 162.156 223.774 159.55V142.586C223.774 139.98 221.485 137.752 218.588 137.531L82.5412 127.173ZM82.3736 128.941L218.42 139.299C220.27 139.44 221.805 140.93 221.805 142.586V159.55C221.805 161.205 220.438 162.329 218.588 162.188L82.5414 151.824C80.6917 151.683 79.157 150.192 79.157 148.537V131.573C79.157 129.918 80.5239 128.8 82.3736 128.941Z" fill="white" fill-opacity="0.992157"/>
<path d="M107.332 449.872C117.789 415.412 75.9042 395.301 106.493 384.028C126.427 376.682 117.059 363.955 114.336 354.267C111.614 344.578 105.669 332.75 134.342 329.295C157.791 324.895 140.393 311.231 151.673 302.545C162.953 293.859 204.48 285.275 211.092 291.289C216.01 295.352 210.766 306.258 186.245 315.771C174.523 320.319 171.598 326.615 173.944 341.859C175.889 349.209 188.145 364.987 166.284 368.638C155.48 370.654 149.956 374.634 155.402 382.652C160.847 390.67 180.956 416.269 143.127 424.142C123.454 428.889 114.514 451.226 114.514 451.226L107.332 449.872Z" fill="#8FD9FF"/>
<path d="M211.341 291.518C207.71 292.546 203.6 293.813 199.205 295.397C191.408 298.207 182.894 301.927 175.375 306.687C177.99 302.02 178.242 296.856 177.733 292.573C177.479 292.633 177.226 292.695 176.973 292.756C177.499 297.308 177.155 302.833 173.971 307.602C168.89 310.968 164.326 314.824 160.855 319.23C159.032 321.545 157.058 324.64 154.99 328.292C156.516 320.524 155.46 311.52 153.92 304.141C153.724 303.205 153.518 302.304 153.311 301.426C153.082 301.57 152.852 301.714 152.638 301.859C152.82 302.64 153.002 303.429 153.174 304.256C154.881 312.433 155.964 322.609 153.625 330.74C149.061 339.19 144.088 350.266 139.188 362.409C138.576 358.444 136.656 354.73 134.006 351.33C133.672 343.347 130.753 335.505 128.317 330.248C128.068 330.297 127.814 330.346 127.573 330.397C129.891 335.386 132.672 342.766 133.198 350.326C129.697 346.138 125.139 342.455 120.642 339.413C118.712 338.108 116.81 336.944 114.989 335.885C114.819 336.047 114.656 336.212 114.503 336.378C116.329 337.439 118.242 338.609 120.179 339.919C128.914 345.827 137.794 354.143 138.588 363.702L138.672 363.697C135.534 371.529 132.433 379.766 129.498 388.028C127.146 394.65 124.911 401.264 122.843 407.682C119.482 401.622 110.928 394.946 103.055 389.654C101.908 388.883 100.785 388.151 99.6854 387.447C99.4822 387.593 99.2946 387.741 99.1066 387.889C100.242 388.615 101.402 389.368 102.588 390.166C106.435 392.752 110.436 395.683 113.905 398.686C109.929 398.129 105.999 398.064 102.31 398.299C99.9506 398.45 97.6948 398.723 95.585 399.062C95.6381 399.273 95.7124 399.492 95.7735 399.706C101.39 398.804 108.057 398.381 114.802 399.473C118.272 402.578 121.105 405.734 122.531 408.645C120.86 413.86 119.31 418.925 117.914 423.738C117.912 423.739 117.87 423.763 117.87 423.763L117.896 423.796C114.819 434.409 112.514 443.735 111.346 450.628L112.087 450.768C113.243 443.961 115.527 434.694 118.582 424.13C119.303 423.711 123.874 421.068 129.949 418.121C136.549 414.919 144.707 411.497 150.802 410.587C155.757 409.847 160.792 409.669 165.056 409.716C165.118 409.501 165.172 409.285 165.222 409.069C160.891 409.014 155.75 409.187 150.675 409.945C147.617 410.402 144.114 411.459 140.562 412.787C141.129 411.389 143.497 405.746 147.334 399.633C149.53 396.134 152.167 392.578 155.127 389.778C156.191 388.772 157.297 387.872 158.435 387.1C158.311 386.912 158.182 386.705 158.06 386.523C156.85 387.337 155.684 388.289 154.571 389.343C151.547 392.203 148.886 395.799 146.672 399.327C142.261 406.354 139.636 413.095 139.615 413.15C136.165 414.483 132.699 416.042 129.576 417.557C124.664 419.941 120.63 422.185 118.856 423.195C122.011 412.368 125.929 400.286 130.217 388.214C131.679 384.097 133.188 379.989 134.719 375.926L134.837 376.032C134.837 376.032 139.797 372.003 146.806 367.942C153.814 363.881 162.87 359.813 170.943 359.699C174.091 359.655 176.731 359.723 178.956 359.858C178.994 359.645 179.025 359.43 179.048 359.213C176.79 359.074 174.117 359.004 170.931 359.049C163.91 359.148 156.362 362.099 149.934 365.465C151.346 363.523 155.285 358.265 160.433 352.853C163.643 349.477 167.271 346.115 170.915 343.62C171.924 342.93 172.933 342.316 173.935 341.778C173.897 341.533 173.871 341.307 173.836 341.066C172.706 341.658 171.574 342.341 170.447 343.113C166.735 345.654 163.079 349.05 159.848 352.447C153.386 359.241 148.62 366.058 148.62 366.058L148.716 366.108C147.923 366.539 147.137 366.972 146.387 367.407C140.837 370.623 136.662 373.742 135.083 374.964C141.433 358.195 148.199 342.403 154.208 331.223L154.27 331.237C154.297 331.149 154.317 331.057 154.342 330.969C156.248 327.439 158.076 324.376 159.788 321.9L159.82 321.946C159.854 321.929 160.12 321.812 160.511 321.655C160.901 321.498 161.437 321.289 162.103 321.033C162.41 320.915 162.987 320.704 163.348 320.568L163.35 320.579C163.35 320.579 169.112 319.554 175.396 319.431C176.666 319.407 177.951 319.433 179.218 319.497C179.492 319.289 179.778 319.085 180.073 318.885C178.524 318.777 176.936 318.751 175.379 318.781C171.771 318.852 168.478 319.206 166.181 319.507C166.676 319.325 166.956 319.213 167.497 319.015C171.93 317.394 177.855 315.305 184.136 313.268C190.002 311.366 196.156 309.529 201.728 308.138C202.287 307.778 202.823 307.42 203.336 307.062C203.128 307.111 202.927 307.155 202.717 307.206C196.815 308.631 190.163 310.62 183.869 312.661C177.575 314.702 171.644 316.794 167.202 318.418C164.981 319.23 163.134 319.926 161.797 320.441C161.233 320.658 160.817 320.825 160.446 320.974C160.795 320.491 161.141 320.025 161.48 319.595C170.167 308.564 185.912 300.889 199.495 295.994C203.975 294.379 208.162 293.094 211.836 292.06C211.689 291.868 211.522 291.689 211.341 291.518L211.341 291.518Z" fill="#30B9FF"/>
<path d="M121.93 446.008C121.93 446.008 118.086 453.372 114.169 449.52C95.8541 431.508 55.6421 428.416 53.3397 428.49C37.9938 428.984 54.7854 409.742 48.0142 405.625C41.2431 401.508 13.0333 400.648 12.9436 392.006C12.8539 383.363 22.6083 386.999 18.1988 379.22C13.7894 371.441 -6.20307 361.193 4.96624 358.391C13.5917 355.21 31.595 366.061 41.6902 369.969C51.7855 373.877 66.6521 368.377 71.1397 376.369C75.6273 384.36 75.2494 395.626 86.291 397.066C97.3327 398.506 108.095 394.989 108.806 407.837C109.516 420.685 121.93 446.008 121.93 446.008Z" fill="#B3E5FF"/>
<path d="M3.41011 358.924C3.13451 359.05 2.88739 359.182 2.67979 359.324C8.09182 361.311 14.9439 364.756 23.0554 370.703C24.7096 371.915 26.7122 373.4 28.867 375.008C26.9151 374.415 24.5659 374.078 22.0169 373.917C21.2341 373.868 20.4294 373.838 19.6152 373.82L19.6724 373.786C15.5448 369.953 10.3063 368.159 6.15472 367.315C6.45499 367.591 6.76023 367.868 7.07589 368.149C10.7472 369.022 15.0737 370.67 18.6342 373.808C16.9775 373.794 15.2828 373.837 13.5954 373.914C13.8023 374.108 14.0157 374.302 14.2163 374.494C16.863 374.384 19.5094 374.362 21.9495 374.516C25.6849 374.752 28.9252 375.386 30.9475 376.567C36.9038 381.029 44.2237 386.593 52.1977 392.759C50.0761 392.134 47.2332 391.734 43.9528 391.468C39.0143 391.068 33.1259 390.997 27.4645 391.077C22.0663 391.153 16.9109 391.369 12.9551 391.573C12.9507 391.716 12.9424 391.855 12.9439 392.006C12.9445 392.062 12.9513 392.117 12.9543 392.173C16.9075 391.969 22.0779 391.753 27.485 391.677C33.126 391.597 38.9879 391.671 43.8667 392.066C48.641 392.454 52.4587 393.189 54.1448 394.261C61.9544 400.316 70.2417 406.837 78.2498 413.293C80.6507 415.228 83.0139 417.152 85.3431 419.06C81.8354 419.332 77.5519 419.671 72.87 420.172C68.212 414.996 60.5257 411.728 53.8607 409.748C52.3983 409.314 51.0007 408.951 49.6777 408.635C49.6944 408.844 49.7046 409.057 49.7025 409.278C50.9288 409.576 52.2108 409.909 53.5534 410.307C60.0257 412.23 67.4268 415.388 71.9651 420.268C68.8595 420.611 65.6225 421.023 62.3856 421.532C56.9547 422.385 51.5372 423.509 46.7832 425.018C46.8293 425.23 46.8907 425.433 46.9622 425.63C59.1723 421.742 76.1508 420.378 86.0257 419.615C90.3245 423.142 94.3914 426.556 98.2268 429.835C93.9738 428.741 88.6061 429.444 84.1177 430.456C81.6028 431.023 79.3622 431.694 77.7498 432.223C78.1328 432.314 78.5221 432.414 78.9085 432.51C80.4013 432.04 82.2707 431.501 84.3542 431.031C89.2781 429.921 95.2224 429.251 99.2803 430.817L99.3183 430.763C101.918 432.997 104.412 435.171 106.675 437.204C112.171 442.145 116.514 446.4 119.147 449.525C119.339 449.366 119.523 449.2 119.699 449.024C117.038 445.89 112.8 441.772 107.462 436.968L107.493 436.963C107.493 436.963 106.487 433.101 105.633 428.372C104.907 424.345 104.301 419.695 104.507 416.299L104.534 416.279C104.526 416.273 104.518 416.266 104.509 416.26C104.545 415.682 104.6 415.13 104.688 414.635C105.338 410.963 107.09 407.892 108.584 405.801C108.527 405.455 108.459 405.124 108.384 404.807C106.766 406.922 104.619 410.361 103.876 414.557C103.815 414.899 103.776 415.276 103.74 415.655C100.177 412.589 98.5123 407.172 97.8069 402.389C97.5555 400.684 97.4278 399.083 97.3608 397.678C97.0883 397.661 96.8171 397.644 96.5389 397.631C96.6059 399.065 96.7354 400.707 96.993 402.454C97.7399 407.518 99.4782 413.319 103.681 416.493C103.502 419.95 104.108 424.49 104.823 428.45C105.508 432.246 106.157 434.913 106.444 436.061C101.656 431.785 96.0472 427.018 90.063 422.059C87.1942 413.735 83.9598 405.523 84.2056 396.64C83.9257 396.561 83.6542 396.475 83.3915 396.38C83.0875 405.067 86.0928 413.07 88.8832 421.081C85.6164 418.383 82.2812 415.653 78.8505 412.887C74.4108 409.308 69.893 405.722 65.4101 402.192L65.4824 402.172C62.7071 396.297 59.2091 385.509 65.0297 372.275C64.77 372.216 64.5065 372.161 64.2376 372.111C61.972 377.281 61.1142 382.083 61.0724 386.378C58.1199 384.156 55.1983 379.656 53.0333 375.613C52.2349 374.122 51.5815 372.768 51.0054 371.534C50.711 371.523 50.4161 371.517 50.1226 371.502C50.7224 372.795 51.416 374.239 52.2706 375.835C54.5852 380.157 57.6714 384.988 61.0771 387.21C61.1628 392.982 62.6881 397.785 64.1967 401.234C61.025 398.741 57.8798 396.282 54.8103 393.901L54.8243 393.89C54.7765 393.857 54.722 393.827 54.6717 393.795C45.9527 387.034 37.9413 380.943 31.5029 376.119L31.5055 376.117C31.5007 376.114 31.4944 376.112 31.4894 376.109C28.7635 374.067 26.2911 372.226 24.2472 370.724C24.03 367.745 21.4386 363.846 18.9046 360.632C18.672 360.337 18.4533 360.088 18.2232 359.806C17.7828 359.656 17.342 359.506 16.9081 359.369C17.335 359.877 17.7608 360.378 18.2027 360.938C20.5055 363.859 22.8103 367.377 23.3324 370.056C15.4817 364.339 8.78573 360.939 3.41011 358.924Z" fill="#8FD9FF"/>
<path d="M109.957 427.02C107.564 413.701 71.833 413.347 83.6323 393.169C91.1548 380.304 62.215 375.914 64.4654 358.644C65.2388 352.045 79.5763 350.86 76.9681 343.204C74.3599 335.549 56.6259 325.274 62.2348 316.038C64.9812 311.934 68.1993 315.312 69.8512 304.903C71.5032 294.494 56.1021 278.409 65.071 275.72C78.826 271.596 78.8435 296.83 100.739 295.901C112.829 295.933 101.786 323.83 111.278 335.612C114.708 339.869 129.022 326.25 131.141 340.942C133.214 355.316 123.567 376.805 127.383 380.204C145.064 402.359 126.071 416.425 121.104 449.777L111.378 451.784L109.957 427.02Z" fill="#33B9FF"/>
<path d="M64.8885 275.789C64.6195 275.879 64.374 275.982 64.1508 276.097C64.6676 276.668 65.1939 277.262 65.7409 277.91C72.0667 285.401 80.2541 298.174 87.6515 319.292C90.5015 327.427 93.1397 334.788 95.6589 341.831C91.4957 339.798 87.1878 337.171 82.9959 334.317L69.1155 308.348C69.0127 308.71 68.9076 309.048 68.7983 309.356L81.6459 333.393C73.7546 327.898 66.4997 321.795 61.5755 317.44C61.4798 317.706 61.4021 317.973 61.3403 318.24C69.3353 325.306 83.3161 336.818 96.0207 342.844C101.006 356.789 105.336 369.052 108.788 380.672C103.241 378.639 98.0662 376.346 93.3212 373.963L76.0137 348.169C75.8491 348.364 75.6737 348.555 75.4846 348.741L91.9448 373.267C79.8051 367.02 70.6459 360.301 65.5078 356.166C65.3562 356.369 65.2165 356.577 65.0938 356.792C72.5187 362.764 88.1915 374.022 109.052 381.574C112.641 393.78 115.311 405.465 116.867 418.123C115.458 414.808 112.57 409.397 107.278 404.638C106.803 404.21 106.271 403.817 105.704 403.451C105.481 400.533 103.666 397.945 101.108 395.71C98.4583 393.396 94.9963 391.437 91.5539 389.843C89.1085 388.71 86.6853 387.772 84.559 387.021C84.6496 387.313 84.7329 387.607 84.7842 387.907C86.7786 388.624 88.9949 389.489 91.2388 390.529C94.6421 392.105 98.0512 394.038 100.614 396.278C102.916 398.289 104.51 400.529 104.885 402.961C100.351 400.416 93.622 399.451 87.6142 399.106C85.3782 398.978 83.2732 398.945 81.3914 398.953C81.3502 399.209 81.318 399.46 81.2955 399.708C83.1865 399.699 85.3115 399.731 87.5698 399.861C94.6915 400.27 102.819 401.643 106.772 405.199C114.529 412.176 117.015 420.527 117.227 421.278C117.618 425.047 117.85 428.561 117.956 431.821C117.835 431.681 117.708 431.54 117.567 431.4C116.931 430.767 116.092 430.131 115.113 429.494C113.604 428.512 111.767 427.532 109.868 426.614C109.9 426.749 109.932 426.883 109.957 427.02L109.986 427.511C111.705 428.357 113.352 429.245 114.7 430.123C115.652 430.742 116.459 431.359 117.037 431.935C117.57 432.465 117.885 432.957 117.993 433.359C118.14 440.296 117.719 446.026 117.089 450.606L117.871 450.445C118.487 445.867 118.891 440.184 118.746 433.336L118.772 433.331C118.767 433.3 118.751 433.269 118.744 433.238C118.663 429.565 118.428 425.572 117.978 421.233L118.001 421.227C118.001 421.227 117.973 421.129 117.965 421.104C117.868 420.169 117.762 419.22 117.644 418.254C117.629 418.132 117.612 418.012 117.597 417.891C117.764 417.692 119.615 415.445 124.132 408.255C124.347 407.912 124.558 407.53 124.766 407.133L134.71 400.572C134.727 400.262 134.746 399.951 134.752 399.641L125.413 405.8C127.256 401.68 128.764 395.704 129.891 390.342C130.269 388.541 130.592 386.854 130.877 385.293C130.681 384.955 130.501 384.621 130.288 384.281C129.97 386.069 129.607 388.021 129.152 390.184C127.78 396.714 125.792 404.2 123.497 407.853C120.105 413.252 118.259 415.794 117.46 416.836C116.084 406.166 113.916 396.159 111.08 385.926C114.159 382.752 116.782 377.413 119.036 371.149C121.336 364.757 123.238 357.406 124.754 350.441C126.028 344.593 127.013 339.084 127.746 334.582C127.514 334.457 127.278 334.347 127.031 334.26C126.297 338.786 125.305 344.358 124.015 350.279C122.762 356.036 121.242 362.05 119.459 367.555L114.5 336.379C114.24 336.419 113.989 336.448 113.748 336.462L118.942 369.114C118.739 369.713 118.537 370.314 118.327 370.897C116.169 376.893 113.652 382.005 110.847 385.073C106.493 369.549 100.589 353.398 93.4867 333.508C96.651 330.934 98.7556 326.677 100.161 321.728C101.617 316.597 102.322 310.708 102.621 305.135C102.789 301.995 102.819 298.988 102.788 296.239C102.55 296.152 102.296 296.085 102.03 296.031C102.066 298.824 102.038 301.89 101.866 305.096C101.593 310.202 100.967 315.557 99.7498 320.317L93.1885 295.036C92.8991 294.95 92.6168 294.858 92.3374 294.761L99.3548 321.782C98.0064 326.421 96.0297 330.356 93.2196 332.752C91.6517 328.359 90.0426 323.842 88.3632 319.048C80.9397 297.855 72.7087 284.992 66.3173 277.422C65.8288 276.844 65.3547 276.307 64.8885 275.788L64.8885 275.789Z" fill="#0082C6"/>
<path d="M471.724 292.767C471.724 292.767 473.488 312.822 486.857 317.798L490.056 322.557C485.037 318.413 478.614 319.171 473.802 321.332C473.802 321.332 481.716 330.339 491.014 323.981L497.776 334.04C491.341 328.942 484.34 330.199 478.455 332.931C478.455 332.931 488.18 341.284 498.513 335.137L505.511 345.546C498.109 340.001 488.992 342.203 481.294 346.024C481.294 346.024 495.208 355.022 506.133 346.471L514.741 359.276C506.99 353.854 495.493 355.149 486.558 359.585C486.558 359.585 501.228 370.129 515.256 360.042L522.847 371.334C514.801 366.013 500.54 366.366 490.208 371.496C490.208 371.496 506.824 383.278 523.276 371.973L531.084 383.587C520.8 376.33 504.948 377.976 492.828 383.994C492.828 383.994 513.059 395.852 531.749 384.576L539.222 395.693C530.542 390.029 517.152 391.029 506.937 396.101C506.937 396.101 522.509 409.701 539.888 396.683L549.49 410.966L550.396 410.358L540.82 396.112C558.856 386.528 552.566 365.47 552.566 365.47C544.134 372.889 537.71 384.05 539.821 394.626L532.659 383.973C548.475 372.66 546.629 347.877 546.629 347.877C536.518 356.774 530.068 369.417 531.87 382.799L524.185 371.367C538.741 361.413 535.837 340.866 535.837 340.866C527.157 347.109 521.437 359.124 523.111 369.77L516.181 359.461C528.833 351.622 526.222 332.959 526.222 332.959C519.032 339.286 513.104 348.1 514.957 357.64L507.018 345.83C517.333 338.363 515.686 322.938 515.686 322.938C509.384 328.482 504.511 334.874 506.026 344.355L499.412 334.516C508.154 327.755 504.684 315.324 504.684 315.324C500.127 319.55 496.232 324.932 498.09 332.55L491.919 323.371C501.539 316.767 495.727 306.614 495.727 306.614C492.043 310.118 489.324 315.541 490.635 321.461L487.553 316.875C488.31 307.937 479.042 296.39 471.724 292.767Z" fill="#8FD9FF"/>
<path opacity="0.99" d="M407.419 293.204C407.318 293.95 400.04 314.586 400.04 314.586L381.853 305.017L386.032 288.162L407.419 293.204Z" fill="#FFC3CA"/>
<path d="M402.43 307.846L403.035 310.361L416.251 325.727C416.251 325.727 417.855 327.256 416.917 330.543C416.137 332.966 411.814 336.018 403.69 332.554C395.565 329.09 380.071 313.288 380.071 313.288C380.071 313.288 373.868 307.627 378.762 301.512C381.905 297.694 383.818 296.987 383.818 296.987C382.606 303.573 389.21 307.487 392.57 310.028L392.354 306.61C395.122 304.842 400.214 305.964 402.43 307.846H402.43Z" fill="#FFBB00" fill-opacity="0.992157"/>
<path opacity="0.99" d="M379.048 185.318C379.048 185.318 433.79 206.344 438.221 221.781C441.509 233.234 405.737 303.526 405.737 303.526L383.422 292.112L401.407 234.174L354.79 222.128C369.172 206.048 374.75 197.613 379.048 185.318Z" fill="#271D49" fill-opacity="0.992157"/>
<path d="M379.033 301.201C378.671 305.274 381.049 308.851 384.02 312.285C387.321 316.1 401.659 327.828 406.558 329.962C411.321 332.042 416.876 329.076 417.182 328.909C417.155 329.4 417.093 329.931 416.918 330.543C416.138 332.966 411.814 336.018 403.689 332.554C395.565 329.09 380.071 313.288 380.071 313.288C380.071 313.288 373.868 307.627 378.761 301.513C378.858 301.398 378.94 301.311 379.033 301.202L379.033 301.201Z" fill="#DADCF4"/>
<path d="M526.755 285.006C492.083 285.006 464.057 313.011 464.057 347.659C464.057 382.306 492.083 410.314 526.755 410.314C561.427 410.314 589.453 382.306 589.453 347.659C589.453 313.011 561.427 285.006 526.755 285.006ZM526.755 289.597C558.876 289.597 584.858 315.56 584.858 347.659C584.858 379.757 558.876 405.715 526.755 405.715C494.633 405.715 468.651 379.757 468.651 347.659C468.651 315.56 494.633 289.597 526.755 289.597Z" fill="#B3B3B3"/>
<path d="M526.755 277.395C487.966 277.395 456.439 308.898 456.439 347.659C456.439 386.421 487.966 417.924 526.755 417.924C565.544 417.924 597.07 386.421 597.07 347.659C597.07 308.898 565.544 277.395 526.755 277.395ZM526.755 285.005C561.427 285.005 589.454 313.012 589.454 347.659C589.454 382.307 561.427 410.313 526.755 410.313C492.082 410.313 464.056 382.307 464.056 347.659C464.056 313.012 492.082 285.005 526.755 285.005Z" fill="black"/>
<path d="M526.754 356.769C531.79 356.769 535.872 352.69 535.872 347.658C535.872 342.626 531.79 338.547 526.754 338.547C521.719 338.547 517.637 342.626 517.637 347.658C517.637 352.69 521.719 356.769 526.754 356.769Z" fill="#FF1A00"/>
<path d="M470.476 201.938L467.301 206.264C467.301 206.264 468.901 207.499 469.854 209.122C470.33 209.934 470.597 210.75 470.581 211.498C470.567 212.246 470.357 213.036 469.343 214.147L469.315 214.168L469.293 214.197C467.624 216.121 463.242 217.806 460.068 221.654C458.482 223.578 457.36 226.257 457.474 229.432C457.588 232.607 458.777 236.211 461.271 240.67L465.957 238.049C463.718 234.046 462.915 231.182 462.845 229.237C462.775 227.291 463.279 226.199 464.209 225.071C466.062 222.824 470.237 221.262 473.315 217.74C475.04 215.841 475.908 213.651 475.951 211.618C475.995 209.578 475.303 207.81 474.483 206.411C472.842 203.614 470.475 201.939 470.475 201.939L470.476 201.938Z" fill="#999999"/>
<path d="M340.217 233.135L335.091 234.736L342.966 260.007L348.092 258.406L340.217 233.135Z" fill="#999999"/>
<path d="M315.467 218.49C323.173 214.97 331.153 221.434 341.613 221.283C349.616 221.119 360.678 220.181 366.702 220.679C372.009 220.671 378.33 227.089 367.122 231.689C353.574 237.249 344.834 238.186 334.437 238.214C321.301 238.25 308.013 222.653 315.467 218.49Z" fill="black"/>
<path d="M467.847 199.778C467.444 199.789 467.044 199.855 466.658 199.974L437.046 208.703C436.482 208.869 435.957 209.145 435.5 209.515C435.042 209.884 434.663 210.34 434.382 210.857C434.101 211.373 433.924 211.939 433.863 212.524C433.801 213.108 433.855 213.699 434.022 214.262C434.188 214.826 434.464 215.351 434.834 215.808C435.204 216.265 435.66 216.644 436.177 216.925C436.694 217.206 437.26 217.382 437.845 217.444C438.43 217.505 439.021 217.451 439.585 217.285L469.19 208.556C470.242 208.261 471.149 207.591 471.742 206.673C472.334 205.755 472.569 204.653 472.404 203.573C472.239 202.494 471.684 201.512 470.845 200.813C470.006 200.114 468.939 199.746 467.847 199.778Z" fill="black"/>
<path d="M275.858 287.326C264.771 287.082 253.474 289.779 243.152 295.734C213.125 313.058 202.865 351.314 220.201 381.319C237.537 411.325 275.823 421.576 305.85 404.252C335.877 386.928 346.135 348.672 328.799 318.666C317.422 298.975 297.024 287.792 275.858 287.326ZM275.755 291.923C295.371 292.356 314.281 302.719 324.821 320.961C340.881 348.759 331.37 384.227 303.552 400.276C275.734 416.326 240.242 406.823 224.181 379.025C208.121 351.227 217.63 315.759 245.448 299.709C255.011 294.192 265.479 291.696 275.755 291.923Z" fill="#B3B3B3"/>
<path d="M335.396 314.861C316.001 281.292 272.936 269.761 239.343 289.142C205.751 308.522 194.212 351.557 213.606 385.125C233.001 418.693 276.066 430.224 309.659 410.844C343.251 391.463 354.79 348.429 335.396 314.861ZM328.8 318.666C346.136 348.671 335.878 386.929 305.851 404.253C275.823 421.576 237.538 411.325 220.202 381.32C202.866 351.314 213.124 313.057 243.151 295.733C273.179 278.409 311.464 288.66 328.8 318.666Z" fill="black"/>
<path d="M464.884 228.048L453.97 231.953L456.015 237.606L457.341 237.132L460.378 245.431L348.815 254.455L348.778 254.344L349.974 254L348.292 248.229L337.152 251.433L338.834 257.206L340.172 256.821L340.627 258.218L270.461 348.345L273.993 355.563H375.599L378.585 354.424L470.304 272.561L486.856 317.797L487.135 318.223C499.042 336.502 512.208 344.698 526.07 354.284L531.161 346.932C517.185 337.267 505.754 330.208 494.878 313.659L465.776 234.115L466.929 233.702L464.884 228.048ZM463.568 254.15L466.995 263.519L377.736 343.187L351.663 263.195L463.568 254.15ZM343.975 268.487L369.437 346.617H283.147L343.975 268.487Z" fill="#FF1A00"/>
<path d="M375.939 370.813C386.747 370.813 395.508 362.058 395.508 351.257C395.508 340.457 386.747 331.702 375.939 331.702C365.131 331.702 356.369 340.457 356.369 351.257C356.369 362.058 365.131 370.813 375.939 370.813Z" fill="#B3B3B3"/>
<path d="M375.939 358.396C379.885 358.396 383.083 355.2 383.083 351.257C383.083 347.314 379.885 344.118 375.939 344.118C371.993 344.118 368.795 347.314 368.795 351.257C368.795 355.2 371.993 358.396 375.939 358.396Z" fill="#FF1A00"/>
<path d="M373.522 350.532L364.724 383.351L368.878 384.462L377.676 351.643L373.522 350.532Z" fill="black"/>
<path d="M378.024 379.58H355.175V388.094H378.024V379.58Z" fill="#FF1A00"/>
<path d="M265.01 355.469C268.036 360.708 274.739 362.502 279.981 359.478C285.223 356.454 287.019 349.756 283.993 344.517C280.966 339.279 274.263 337.484 269.021 340.509C263.779 343.533 261.983 350.231 265.01 355.469Z" fill="#B3B3B3"/>
<path opacity="0.99" d="M380.025 102.801L419.007 132.238L458.666 127.919L460.453 116.423L472.468 112.228L480.155 125.737L470.925 134.027L466.77 132.788L425.482 154.252L374.294 127.858L380.025 102.801Z" fill="#FFB0B9"/>
<path opacity="0.99" d="M397.693 114.467L380.216 141.043L355.682 118.409C355.682 118.409 348.083 105.005 354.409 98.4271C366.336 86.8247 397.693 114.467 397.693 114.467Z" fill="url(#paint0_linear_2669_38026)"/>
<path opacity="0.99" d="M394.942 60.8268C394.942 60.8268 388.864 89.9173 377.535 91.509C367.97 93.1377 363.787 88.6687 363.787 88.6687L364.8 102.083L364.674 120.687L339.725 94.4902L350.996 77.5319C350.996 77.5319 349.096 51.0822 367.207 52.6008C385.317 54.1195 394.942 60.8268 394.942 60.8268H394.942Z" fill="#FFC3CA"/>
<path d="M347.576 76.3928L352.906 75.0387C352.906 75.0387 351.616 58.9363 358.721 58.2956C365.47 57.9513 363.682 64.7579 363.682 64.7579L367.185 66.0179C369.041 61.1491 372.75 58.5269 381.973 60.7854C394.841 64.085 399.894 61.2865 395.533 48.2192C391.965 38.9329 367.845 33.1659 359.898 37.3224C347.083 43.3591 344.589 60.0293 347.576 76.3928Z" fill="#131A4C"/>
<path opacity="0.99" d="M351.497 385.012C351.403 385.759 348.475 407.192 348.475 407.192L330.198 397.794L333.733 382.856L351.497 385.012Z" fill="#FFC3CA"/>
<path opacity="0.99" d="M315.155 178.016C315.155 178.016 304.011 208.389 311.609 230.156C319.208 251.923 334.405 301.026 334.405 301.026C328.801 318.666 329.674 344.703 331.033 383.151L352.565 387.502C352.565 387.502 368.122 309.244 367.333 292.927C365.518 255.389 361.577 195.835 361.577 195.835C347.932 183.718 332.606 182.632 315.155 178.016Z" fill="#352764"/>
<path opacity="0.99" d="M344.242 87.7036C340.063 88.9557 321.68 93.1307 321.68 93.1307L313.591 112.919C301.987 151.525 302.444 193.861 303.442 218.859C303.442 218.859 326.093 229.887 344.95 229.486C374.252 228.802 395.812 201.194 395.812 201.194C399.171 197.205 401.073 191.169 398.921 189.493C395.945 186.784 385.925 177.517 383.663 169.265C373.678 152.867 379.514 107.934 364.363 97.3473C364.864 100.844 365.305 103.943 363.013 104.377C355.403 105.815 349.148 94.5804 344.242 87.7036Z" fill="url(#paint1_linear_2669_38026)"/>
<path d="M350.802 400.431L351.431 402.94L364.79 418.182C364.79 418.182 366.41 419.696 365.502 422.991C364.745 425.422 360.451 428.514 352.294 425.126C344.138 421.738 328.495 406.082 328.495 406.082C328.495 406.082 322.24 400.479 327.076 394.319C330.183 390.471 332.09 389.747 332.09 389.747C330.939 396.344 337.58 400.196 340.963 402.705L340.716 399.29C343.902 398.115 348.378 398.534 350.802 400.431H350.802Z" fill="#FFBB00" fill-opacity="0.992157"/>
<path d="M327.344 394.006C327.02 398.082 329.432 401.637 332.435 405.042C335.772 408.826 350.219 420.419 355.138 422.508C359.92 424.543 365.447 421.525 365.751 421.355C365.73 421.846 365.673 422.377 365.503 422.991C364.746 425.421 360.45 428.514 352.294 425.126C344.137 421.739 328.496 406.082 328.496 406.082C328.496 406.082 322.239 400.48 327.075 394.32C327.17 394.205 327.252 394.116 327.344 394.006V394.006Z" fill="#D9DCF5" fill-opacity="0.992157"/>
<path d="M352.362 79.0078C350.848 84.796 352.543 93.7671 358.454 95.5568C361.228 96.3967 363.104 96.2088 364.325 95.7761L363.788 88.6684C363.788 88.6684 356.451 84.9623 352.362 79.0079V79.0078Z" fill="#FC9CA7" fill-opacity="0.992157"/>
<path d="M472.012 100.049L460.798 167.905L470.233 155.693L482.07 90.4731L472.012 100.049Z" fill="#CCCCCC"/>
<path d="M472.012 100.05L460.798 167.905L414.681 167.283L423.581 97.6377L472.012 100.05Z" fill="#ECECEC"/>
<path d="M344.242 87.7041C340.063 88.9562 321.68 93.13 321.68 93.13L313.592 112.92C301.988 151.526 302.443 193.861 303.441 218.86C303.441 218.86 326.094 229.887 344.95 229.486C362.767 229.07 377.708 218.705 386.694 210.64C373.957 203.19 355.958 217.27 341.47 206.417C326.47 195.182 325.767 161.304 329.782 143.621C337.074 111.505 350.234 112.97 357.839 103.488C352.519 100.735 347.987 92.9535 344.242 87.7041Z" fill="#E8AA00"/>
<path d="M367.647 96.355L364.324 95.7759C369.61 100.299 373.237 115.845 372.679 130.446L377.207 130.513C377.806 114.852 374.82 102.493 367.647 96.3552V96.355Z" fill="#352764" fill-opacity="0.992157"/>
<path d="M344.243 87.7041C343.661 87.8783 342.764 88.117 341.721 88.3853C343.451 91.7966 348.33 100.757 353.904 104.966C358.631 108.534 362.732 108.345 365.236 106.969C366.871 106.07 367.381 103.063 367.244 100.057C366.377 99.002 365.424 98.0873 364.364 97.3468C364.865 100.844 365.306 103.943 363.014 104.376C355.404 105.814 349.149 94.581 344.243 87.7041Z" fill="#FFBB01"/>
<path opacity="0.99" d="M380.7 33.8637C378.824 33.4576 376.735 33.2159 374.407 33.1778C349.577 32.7715 347.702 52.4482 347.702 52.4482L330.229 53.266C327.515 53.3635 327.167 57.0413 329.688 57.0808L397.007 57.1221C397.007 57.1221 397.151 55.4392 396.918 52.9946C394.645 52.9184 392.094 52.3982 391.574 50.4491C390.893 47.8924 392.787 44.8425 393.988 43.2291C391.677 39.1475 387.662 35.3706 380.7 33.8634L380.7 33.8637Z" fill="#FF1A00"/>
<path d="M400.905 38.9004C400.537 38.8631 400.304 39.1251 400.356 39.7598C400.631 43.1445 398.587 43.3773 398.166 42.6611C397.805 41.8559 398.421 41.3764 398.421 41.3764C398.421 41.3764 398.294 40.4807 397.085 40.9054C395.528 41.5279 394.29 42.4798 393.291 44.0976C392.276 45.7785 390.94 48.6831 391.616 50.7709C393.736 53.927 398.782 54.1018 402.052 51.3889C406.911 47.7819 404.968 40.0169 400.905 38.9004Z" fill="#131A4C"/>
<path opacity="0.99" d="M321.855 95.3197C321.855 95.3197 311.603 123.228 310.16 140.925C307.703 171.055 310.428 187.558 299.566 197.765C288.704 207.973 269.424 193.759 271.497 168.601C273.57 143.443 294.108 108.737 295.886 106.329C297.664 103.921 318.024 92.5273 320.34 91.8715C322.657 91.2158 321.855 95.3198 321.855 95.3198L321.855 95.3197Z" fill="#352764"/>
<path opacity="0.99" d="M285.595 127.796L279.372 129.025L273.467 144.19L277.754 149.657L285.595 127.796Z" fill="#21193F"/>
<path opacity="0.99" d="M277.08 154.957C273.552 152.569 272.506 153.806 271.85 155.613C271.85 155.613 266.297 173.144 271.797 189.443C277.13 200.217 282.743 199.233 286.552 197.966C292.452 195.441 277.079 154.957 277.079 154.957H277.08Z" fill="#21193F"/>
<path opacity="0.99" d="M311.4 84.7812C307.29 87.2426 307.01 94.828 307.166 98.8822C308.513 98.0998 309.842 97.3432 311.156 96.6078C310.941 94.4317 311.563 89.0515 313.152 88.2499C314.575 87.533 315.737 90.7097 315.765 94.0842C317.445 93.1943 318.815 92.5062 319.654 92.1391C318.513 86.0134 316.222 82.8816 311.4 84.7812Z" fill="#21193F"/>
<path d="M332.229 89.3329C324.029 89.4112 316.042 93.8978 316.042 93.8978L318.455 98.3587C318.455 98.3587 326.004 94.4626 332.278 94.4028C335.416 94.373 337.91 95.123 339.646 97.423C341.382 99.7229 342.567 104.135 341.549 112.019C339.513 127.774 330.258 144.037 321.428 156.247C312.597 168.456 304.319 176.576 304.319 176.576L307.877 180.195C307.877 180.195 316.452 171.783 325.54 159.217C334.628 146.652 344.357 129.893 346.582 112.667C347.694 104.061 346.595 98.2003 343.699 94.3682C340.806 90.536 336.329 89.2938 332.229 89.3329Z" fill="#352764" fill-opacity="0.992157"/>
<path d="M444.786 114.505L443.501 114.456L445.621 106.203L441.492 111.717L440.726 111.687L439.502 105.971L437.381 114.223L436.18 114.178L438.642 104.6L440.394 104.666L441.6 110.097L445.462 104.859L447.247 104.927L444.786 114.505Z" fill="#A3A3A3"/>
<path d="M455.014 114.893L453.645 114.841L453.383 112.136L449.204 111.977L447.571 114.61L446.266 114.561L452.245 105.117L453.958 105.182L455.014 114.893ZM453.269 111.027L452.783 106.261L449.875 110.898L453.269 111.027Z" fill="#A3A3A3"/>
<path d="M464.521 108.506C464.412 108.931 464.235 109.322 463.99 109.681C463.75 110.036 463.462 110.341 463.126 110.596C462.708 110.914 462.25 111.148 461.753 111.298C461.257 111.443 460.663 111.503 459.97 111.477L458.685 111.428L457.768 114.998L456.483 114.949L458.944 105.371L461.566 105.471C462.146 105.493 462.624 105.561 463.001 105.675C463.379 105.784 463.697 105.948 463.956 106.166C464.261 106.424 464.466 106.739 464.571 107.111C464.681 107.484 464.664 107.949 464.521 108.506L464.521 108.506ZM463.176 108.487C463.261 108.157 463.276 107.868 463.222 107.619C463.168 107.37 463.042 107.164 462.844 107C462.67 106.86 462.457 106.756 462.203 106.69C461.954 106.62 461.627 106.577 461.22 106.562L459.948 106.514L458.965 110.341L460.049 110.382C460.568 110.402 461.001 110.373 461.349 110.295C461.697 110.213 461.999 110.075 462.254 109.881C462.511 109.683 462.709 109.472 462.85 109.248C462.995 109.024 463.103 108.77 463.176 108.487L463.176 108.487Z" fill="#A3A3A3"/>
<path opacity="0.99" d="M346.245 106.042L363.86 131.996L416.598 121.178L422.937 112.07L434.063 114.364L432.533 128L422.687 129.947C422.687 129.947 367.804 152.976 362.789 153.692C357.775 154.408 331.917 128.235 331.917 128.235L346.245 106.042Z" fill="#FFC3CA"/>
<path opacity="0.99" d="M359.813 119.633L336.494 141.273C325.647 128.802 305.379 105.181 321.68 93.13C337.431 82.4456 359.813 119.633 359.813 119.633Z" fill="url(#paint2_linear_2669_38026)"/>
<path d="M486.157 14.4437C486.157 16.927 485.713 19.1442 484.826 21.0954C483.938 23.0212 482.772 24.7316 481.326 26.2267C479.906 27.6711 478.271 29.0267 476.419 30.2937C474.568 31.5607 472.603 32.7897 470.524 33.9807V42.5328H463.715V30.9399C465.363 30.0023 467.138 28.9761 469.04 27.8611C470.967 26.7462 472.54 25.6185 473.757 24.4782C475.228 23.1606 476.369 21.8049 477.18 20.4112C477.992 18.9922 478.397 17.1931 478.397 15.0138C478.397 12.1504 477.421 10.0219 475.469 8.62821C473.541 7.20918 471.044 6.49966 467.975 6.49966C465.237 6.49966 462.637 6.93042 460.178 7.79197C457.743 8.65352 455.816 9.52777 454.396 10.4147H454.016V2.66066C455.791 1.97648 458.035 1.36834 460.748 0.836208C463.487 0.278732 466.073 0 468.508 0C473.96 0 478.258 1.33033 481.402 3.99101C484.572 6.62635 486.157 10.1106 486.157 14.4437ZM471.132 57.7367H463.373V49.7167H471.132V57.7367Z" fill="#2B0D70"/>
<path d="M503.252 32.0361L487.617 73.1019L488.586 73.5004L506.266 33.7052L503.252 32.0361Z" fill="#2B0D70"/>
<path d="M440.933 32.2258L437.248 32.368L444.099 80.2722L445.124 80.1302L440.933 32.2258Z" fill="#2B0D70"/>
<path d="M428.079 64.5591L425.77 65.6842L436.998 82.8402L437.922 82.3317L428.079 64.5591Z" fill="#2B0D70"/>
<path d="M518.098 61.8157L495.766 79.8897L496.335 80.7578L520.034 65.5013L518.098 61.8157Z" fill="#2B0D70"/>
<defs>
<linearGradient id="paint0_linear_2669_38026" x1="351.906" y1="141.301" x2="321.712" y2="93.111" gradientUnits="userSpaceOnUse">
<stop stop-color="#FFBB00"/>
<stop offset="1" stop-color="#FFE293"/>
</linearGradient>
<linearGradient id="paint1_linear_2669_38026" x1="49.1102" y1="222.874" x2="49.7872" y2="101.26" gradientUnits="userSpaceOnUse">
<stop stop-color="#FFBB00"/>
<stop offset="1" stop-color="#FFE293"/>
</linearGradient>
<linearGradient id="paint2_linear_2669_38026" x1="344.641" y1="145.852" x2="326.816" y2="91.8576" gradientUnits="userSpaceOnUse">
<stop stop-color="#FFBB00"/>
<stop offset="1" stop-color="#FFE293"/>
</linearGradient>
</defs>
</svg>
