<?xml version="1.0" standalone="no"?>
<!DOCTYPE svg PUBLIC "-//W3C//DTD SVG 20010904//EN"
 "http://www.w3.org/TR/2001/REC-SVG-20010904/DTD/svg10.dtd">
<svg version="1.0" xmlns="http://www.w3.org/2000/svg"
 width="700.000000pt" height="700.000000pt" viewBox="0 0 700.000000 700.000000"
 preserveAspectRatio="xMidYMid meet">
<metadata>
Created by potrace 1.14, written by Peter Selinger 2001-2017
</metadata>
<g transform="translate(0.000000,700.000000) scale(0.100000,-0.100000)"
fill="#000000" stroke="none">
<path d="M1489 6984 c-98 -29 -113 -73 -109 -324 5 -386 5 -1042 -1 -1051 -5
-9 -306 -10 -1139 -7 -140 0 -197 -32 -224 -123 -10 -35 -12 -448 -11 -1994 1
-1747 3 -1954 17 -1985 37 -84 102 -108 283 -104 211 5 1078 4 1083 0 2 -3 3
-215 2 -473 -5 -876 -6 -815 13 -850 10 -18 32 -41 50 -50 30 -17 140 -18
2017 -20 1297 -1 1999 2 2025 9 46 11 70 30 93 73 14 26 16 71 14 355 -2 179
-4 467 -5 640 l-2 315 615 0 c338 0 633 3 655 8 22 4 54 19 71 32 63 48 61
-17 59 1385 -1 1361 1 1305 -48 1354 -43 42 -86 46 -480 39 -400 -8 -1498 -9
-1923 -2 l-260 4 -37 -25 c-61 -42 -72 -81 -70 -249 3 -169 3 -718 0 -901 -2
-153 11 -194 76 -230 l41 -24 633 1 633 0 1 -86 c0 -47 2 -355 3 -683 l4 -598
-2082 1 -2082 0 0 2075 -1 2076 2016 -3 c1531 -2 2026 1 2058 10 59 16 98 53
117 108 14 39 15 78 11 228 -7 231 -7 480 0 722 4 124 2 206 -5 232 -14 53
-52 97 -98 113 -53 18 -3952 20 -4013 2z"/>
</g>
</svg>
