<svg width="46" height="46" viewBox="0 0 46 46" fill="none" xmlns="http://www.w3.org/2000/svg">
<path d="M46 23C46 35.7025 35.7025 46 23 46C10.2975 46 0 35.7025 0 23C0 10.2975 10.2975 0 23 0C35.7025 0 46 10.2975 46 23ZM23 45C35.1503 45 45 35.1503 45 23C45 10.8497 35.1503 1 23 1C10.8497 1 1 10.8497 1 23C1 35.1503 10.8497 45 23 45Z" fill="url(#paint0_linear_8686_194569)"/>
<path d="M34.9305 9.09479C35.4647 8.5169 35.4325 7.61065 34.8162 7.1212C33.1617 5.80727 31.2969 4.77637 29.2973 4.07392C26.8487 3.21377 24.25 2.86436 21.6612 3.04723C19.0724 3.23009 16.5486 3.94136 14.2453 5.13717C12.3643 6.11374 10.6629 7.39655 9.20958 8.93002C8.6682 9.50124 8.76366 10.403 9.37383 10.9001C9.98401 11.3971 10.8773 11.3004 11.4262 10.7364C12.6285 9.50094 14.0231 8.46374 15.5585 7.6666C17.5163 6.65016 19.6616 6.04558 21.862 5.89014C24.0625 5.73471 26.2714 6.03171 28.3527 6.76283C29.9849 7.33622 31.5114 8.16708 32.8755 9.2212C33.4982 9.70244 34.3962 9.67268 34.9305 9.09479Z" fill="white" fill-opacity="0.8"/>
<path d="M39.3788 15.627C40.1122 15.3416 40.4803 14.5128 40.1408 13.8028C39.7065 12.8947 39.2007 12.0225 38.6282 11.1944C38.1806 10.5471 37.2785 10.4549 36.6665 10.9498C36.0545 11.4446 35.9654 12.3387 36.4044 12.9919C36.802 13.5837 37.1601 14.2011 37.4762 14.8402C37.8251 15.5456 38.6454 15.9123 39.3788 15.627Z" fill="white" fill-opacity="0.8"/>
<defs>
<linearGradient id="paint0_linear_8686_194569" x1="23" y1="1" x2="23" y2="45" gradientUnits="userSpaceOnUse">
<stop stop-color="#DFF0FF"/>
<stop offset="1" stop-color="#AAD6FF"/>
</linearGradient>
</defs>
</svg>
