<?xml version="1.0" standalone="no"?>
<!DOCTYPE svg PUBLIC "-//W3C//DTD SVG 20010904//EN"
 "http://www.w3.org/TR/2001/REC-SVG-20010904/DTD/svg10.dtd">
<svg version="1.0" xmlns="http://www.w3.org/2000/svg"
 width="512.000000pt" height="512.000000pt" viewBox="0 0 512.000000 512.000000"
 preserveAspectRatio="xMidYMid meet">
<metadata>
Created by potrace 1.14, written by Peter Selinger 2001-2017
</metadata>
<g transform="translate(0.000000,512.000000) scale(0.100000,-0.100000)"
fill="#000000" stroke="none">
<path d="M1095 5112 c-36 -8 -64 -33 -76 -69 -7 -23 -10 -112 -9 -266 2 -196
2 -615 0 -667 0 -14 -49 -16 -437 -14 -433 2 -500 -2 -530 -31 -41 -42 -40
-15 -39 -1515 2 -1552 -1 -1469 55 -1507 24 -17 63 -18 491 -18 l465 0 0 -477
c0 -468 0 -477 21 -505 12 -16 35 -30 54 -34 18 -4 681 -7 1474 -7 1172 0
1447 2 1473 13 62 26 61 22 59 533 -1 255 1 465 5 468 4 2 212 4 461 4 409 1
458 2 489 18 70 35 66 -24 65 1026 -1 937 -1 945 -22 972 -34 47 -67 51 -319
46 -263 -6 -1218 -6 -1465 -1 -183 4 -220 -5 -242 -59 -7 -18 -11 -174 -11
-468 0 -398 2 -443 17 -466 33 -50 44 -51 527 -50 247 0 453 3 458 6 5 4 9
-208 10 -499 l2 -505 -1523 0 -1523 0 0 1518 0 1518 1480 -3 c1431 -2 1481 -2
1522 17 65 29 76 59 73 209 -3 164 -3 433 0 592 3 138 -4 167 -53 203 l-28 21
-1452 0 c-799 1 -1461 -1 -1472 -3z"/>
</g>
</svg>
