<svg x="0" y="0" viewBox="0 0 59 59" filtersec="colorsb1267441059" class="image-svg-svg primary" style="overflow: visible;"><svg xmlns="http://www.w3.org/2000/svg" viewBox="0.000002384185791015625 0 183.92088317871094 184.16021728515625"><title>资源 60</title><g><g><path d="M36.36 36.81c0-10.09.11-20.19-.19-30.28C36 1.88 37.15 0 42.32 0Q91.69.33 141 0c5 0 6.56 1.61 6.38 6.44-.31 8.07-.44 16.17 0 24.22.36 6-2.1 7.18-7.55 7.14-34.34-.25-68.69-.18-103-.22-.13-.25-.3-.51-.47-.77z" fill="#2fade2"></path><path d="M147.06 147.53c.05 10.38 0 20.77.22 31.14.1 4.08-1.24 5.51-5.44 5.49q-50.2-.21-100.4 0c-4.57 0-5.17-1.91-5.09-5.68.23-10.38.19-20.76.25-31.14l.28-.57h109.4a.82.82 0 0 0 .78.76z" fill="#693394"></path><path d="M36.88 146.79l-.28.57c-9.84 0-19.68-.22-29.5.11-5.1.17-7.1-1.11-7.1-6.67q.35-48.59 0-97.15c0-5.22 1.43-7.15 6.84-6.94 9.82.38 19.66.1 29.5.1q.27.39.51.78.03 54.6.03 109.2z" fill="#8cc640"></path><path d="M147.06 147.53a.82.82 0 0 1-.78-.77l-.18-35.87q0-18.65-.1-37.29c10.64-.13 21.29-.11 31.92-.45 4.52-.15 6 1.52 6 6-.16 20.72-.2 41.44 0 62.15.05 5.11-2 6.33-6.66 6.22-10.05-.25-20.13-.02-30.2.01z" fill="#f9b043"></path><path d="M146 73.6q.06 18.65.1 37.29c-10 0-20.11-.26-30.15.08-5 .17-6.48-1.49-6.28-6.35.35-8.31.34-16.65 0-25-.19-4.76 1.11-6.66 6.19-6.44 10.04.48 20.14.33 30.14.42z" fill="#e9462a"></path></g></g></svg></svg>
